<svg width="32" height="32" viewBox="0 0 32 32" fill="none" xmlns="http://www.w3.org/2000/svg">
<path id="Combined Shape" fill-rule="evenodd" clip-rule="evenodd" d="M1 0C0.447715 0 0 0.447715 0 1V25.99V26V26.088C0.0212881 27.6491 0.652221 29.1399 1.758 30.242C2.88171 31.3692 4.40839 32.0019 6 32H31C31.5523 32 32 31.5523 32 31V21C32 20.4477 31.5523 20 31 20H20.522L28.778 11.78C28.9661 11.5924 29.0718 11.3377 29.0718 11.072C29.0718 10.8063 28.9661 10.5516 28.778 10.364L21.708 3.292C21.3175 2.90162 20.6845 2.90162 20.294 3.292L12 11.554V1C12 0.447715 11.5523 0 11 0H1ZM26.656 11.068L12 25.668V14.376L20.998 5.412L26.656 11.068ZM9 26C9 24.3431 7.65685 23 6 23C4.34315 23 3 24.3431 3 26C3 27.6568 4.34315 29 6 29C7.65685 29 9 27.6568 9 26ZM18.516 22H30V30H10.486L18.516 22Z" fill="white"/>
</svg>
